HIERARCHY
ROOT ui
{
	 OFFSET 0 0 0
	 CHANNELS 3 XPosition YPosition Z Position
	 EndSite
	 {
	 OFFSET 0 -1 0
	 }
}
ROOT li
{
	 OFFSET 0 0 0
	 CHANNELS 3 XPosition YPosition Z Position
	 EndSite
	 {
	 OFFSET 0 -1 0
	 }
}
ROOT ul
{
	 OFFSET 0 0 0
	 CHANNELS 3 XPosition YPosition Z Position
	 EndSite
	 {
	 OFFSET 0 -1 0
	 }
}
ROOT ll
{
	 OFFSET 0 0 0
	 CHANNELS 3 XPosition YPosition Z Position
	 EndSite
	 {
	 OFFSET 0 -1 0
	 }
}
ROOT tt
{
	 OFFSET 0 0 0
	 CHANNELS 3 XPosition YPosition Z Position
	 EndSite
	 {
	 OFFSET 0 -1 0
	 }
}
ROOT tb
{
	 OFFSET 0 0 0
	 CHANNELS 3 XPosition YPosition Z Position
	 EndSite
	 {
	 OFFSET 0 -1 0
	 }
}
ROOT td
{
	 OFFSET 0 0 0
	 CHANNELS 3 XPosition YPosition Z Position
	 EndSite
	 {
	 OFFSET 0 -1 0
	 }
}
ROOT v
{
	 OFFSET 0 0 0
	 CHANNELS 3 XPosition YPosition Z Position
	 EndSite
	 {
	 OFFSET 0 -1 0
	 }
}
ROOT bn
{
	 OFFSET 0 0 0
	 CHANNELS 3 XPosition YPosition Z Position
	 EndSite
	 {
	 OFFSET 0 -1 0
	 }
}
MOTION
Frames: 21
Frame Time: 0.002
0.009472941398620606	5.814909934997558E-4	0		0.5096444396972656	-2.417775390625	0		-0.836576171875	0.315228759765625	0		-0.39573385620117185	-2.86927294921875	0		1.82331640625	-0.3346329956054688	0		3.33581982421875	0.24411705017089844	0		4.73701123046875	0.18257444763183595	0		6.025908203125	0.538891845703125	0		-0.1346765594482422	5.9616708984375	0		
0.0056837000846862796	-0.002596400022506714	0		0.49579006958007815	-2.41382958984375	0		-0.9182510986328125	0.3183732604980469	0		-0.4075250854492187	-2.859293212890625	0		1.8464503173828124	-0.34138137817382813	0		3.3258232421875	0.22679098510742188	0		4.7380732421875	0.16896612548828124	0		6.020353515625	0.547298095703125	0		-0.016796703338623046	5.97154638671875	0		
-0.0030420188903808594	3.087249994277954E-4	0		0.4907915344238281	-2.417024169921875	0		-0.852060791015625	0.3141289978027344	0		-0.4064593200683594	-2.856520263671875	0		1.841358642578125	-0.3596719055175781	0		3.33580322265625	0.21014942932128905	0		4.73398583984375	0.14844985961914062	0		6.0196337890625	0.5476373291015625	0		-0.14947848510742187	5.95146923828125	0		
0.0010850950479507446	-0.00399754810333252	0		0.44577157592773436	-2.419566650390625	0		-0.9248198852539062	0.31613677978515625	0		-0.4023699951171875	-2.850799560546875	0		1.835233642578125	-0.37794296264648436	0		3.358812255859375	0.19729988098144532	0		4.72909228515625	0.1419576416015625	0		6.02375048828125	0.539908203125	0		-0.16778338623046876	5.956546875	0		
2.6437199115753176E-4	-0.0032282359600067138	0		0.5095991821289062	-2.4308896484375	0		-0.9256190185546875	0.3169685363769531	0		-0.42136392211914064	-2.84870849609375	0		1.794409423828125	-0.3756427917480469	0		3.330943115234375	0.19428517150878907	0		4.719298828125	0.14355522155761719	0		6.01909814453125	0.548335693359375	0		-0.13410842895507813	5.96277001953125	0		
0.002464833974838257	4.837239980697632E-4	0		0.4748304138183594	-2.415603759765625	0		-0.8544567260742187	0.31660626220703125	0		-0.40303506469726563	-2.826235107421875	0		1.8363507080078125	-0.38670068359375	0		3.34477685546875	0.17459048461914062	0		4.72611376953125	0.12288706970214844	0		6.01728466796875	0.5487296142578125	0		-0.001232545018196106	5.98335205078125	0		
-0.0014584239721298219	-0.001714789032936096	0		0.49667730712890623	-2.423258544921875	0		-0.93641650390625	0.3117455749511719	0		-0.43802349853515626	-2.821899169921875	0		1.7842789306640625	-0.3962157897949219	0		3.3538125	0.16897897338867188	0		4.72188427734375	0.10140985107421875	0		6.021310546875	0.5410416870117187	0		-0.001750465989112854	5.98410400390625	0		
-0.0023571219444274904	-9.747350215911865E-4	0		0.49361199951171875	-2.424512451171875	0		-0.869389892578125	0.30641287231445313	0		-0.4129161376953125	-2.811566650390625	0		1.8051568603515624	-0.407936767578125	0		3.330760986328125	0.15989898681640624	0		4.71890869140625	0.09692269134521485	0		6.011443359375	0.5415978393554688	0		-0.14986083984375	5.95328076171875	0		
-0.00732752799987793	-0.003181194067001343	0		0.49256582641601565	-2.4238115234375	0		-0.9373523559570313	0.3042969055175781	0		-0.4757745361328125	-2.797791259765625	0		1.8178310546875	-0.43053244018554687	0		3.335216552734375	0.12235948181152344	0		4.70362939453125	0.07564132690429687	0		6.0115498046875	0.5419978637695313	0		-0.1343277587890625	5.96274853515625	0		
-0.004219258785247803	4.642379879951477E-4	0		0.4774923095703125	-2.42389013671875	0		-0.8512406616210938	0.30660595703125	0		-0.38994683837890626	-2.80350341796875	0		1.816869140625	-0.42990875244140625	0		3.37091015625	0.10029652404785157	0		4.71369091796875	0.07594156646728516	0		6.02248388671875	0.5332191162109375	0		-0.16610762023925782	5.95598388671875	0		
-0.0021265621185302735	0.0041105737686157225	0		0.5054194641113281	-2.423699462890625	0		-0.8530498046875	0.315357421875	0		-0.46062277221679687	-2.777623779296875	0		1.774914794921875	-0.4276117248535156	0		3.334129638671875	0.11143717956542969	0		4.710654296875	0.07145484161376953	0		6.0177021484375	0.5427034301757813	0		-0.14887582397460938	5.951388671875	0		
-0.0061442251205444335	0.0018414779901504516	0		0.4913976745605469	-2.41982421875	0		-0.8681862182617187	0.3053106689453125	0		-0.3917887878417969	-2.782094482421875	0		1.8006397705078125	-0.44445846557617186	0		3.344545654296875	0.0747762222290039	0		4.7142197265625	0.04384970474243164	0		6.0074912109375	0.5272738647460937	0		-0.14958416748046874	5.9520751953125	0		
-0.007117258071899414	0.0025039310455322265	0		0.4971570739746094	-2.429298095703125	0		-0.8691469116210937	0.30600830078125	0		-0.45566525268554686	-2.768361083984375	0		1.79351513671875	-0.4517679443359375	0		3.339358154296875	0.062370880126953125	0		4.7160302734375	0.031271041870117186	0		6.00653955078125	0.52769091796875	0		-0.01794712448120117	5.97352587890625	0		
-0.012137765884399415	2.1396300196647644E-4	0		0.49609506225585936	-2.4286748046875	0		-0.8641910400390626	0.3015828857421875	0		-0.41466183471679685	-2.76340869140625	0		1.7894605712890626	-0.45514224243164064	0		3.367965087890625	0.037386627197265626	0		4.710943359375	0.02480419158935547	0		6.00243798828125	0.5191590576171875	0		-0.15107829284667967	5.9523916015625	0		
-0.009046701431274414	0.0037659080028533934	0		0.47012435913085937	-2.423651611328125	0		-0.9330626220703125	0.30737677001953123	0		-0.4734034118652344	-2.743800537109375	0		1.7884862060546876	-0.4545838623046875	0		3.3390283203125	0.039362831115722655	0		4.7099853515625	0.025263044357299806	0		6.000783203125	0.5365883178710937	0		-0.13665122985839845	5.96376171875	0		
0.002914808988571167	-0.0018588039875030518	0		0.496077880859375	-2.42552783203125	0		-0.8619990844726563	0.3067833557128906	0		-0.43234356689453124	-2.73890234375	0		1.7875369873046876	-0.45404443359375	0		3.35353466796875	0.006589940071105957	0		4.6967314453125	0.006919229984283447	0		6.0005771484375	0.5199857177734375	0		-0.13642312622070313	5.9633427734375	0		
-0.014930741310119629	0.0019925090074539185	0		0.49308248901367185	-2.426942138671875	0		-0.866956787109375	0.3034384460449219	0		-0.4709700927734375	-2.71768701171875	0		1.7825594482421876	-0.4574584045410156	0		3.35751708984375	-1.6530999913811685E-5	0		4.69861279296875	-0.005687579154968262	0		6.00769091796875	0.520258544921875	0		-0.01898037338256836	5.9739140625	0		
-0.015777435302734375	0.002524557113647461	0		0.490133056640625	-2.42938671875	0		-0.8728639526367188	0.3000740356445312	0		-0.4457097473144531	-2.707586669921875	0		1.7666033935546874	-0.46271026611328125	0		3.325404052734375	-0.015030046463012696	0		4.690546875	-0.0181365966796875	0		5.99400927734375	0.5298798217773437	0		-0.0206815185546875	5.97546337890625	0		
-0.039821964263916015	-0.012587859153747558	0		0.463369140625	-2.425459716796875	0		-0.9456083374023437	0.3028041076660156	0		-0.4743765258789063	-2.697610595703125	0		1.74094091796875	-0.4548226928710937	0		3.31730615234375	-0.03347046661376953	0		4.690515625	-0.03273656845092773	0		5.98495458984375	0.5134102172851562	0		-0.151777587890625	5.9521650390625	0		
0.07362901306152343	-0.00506586217880249	0		0.492680908203125	-2.423519287109375	0		-0.8584036865234375	0.2957813415527344	0		-0.4968066101074219	-2.67977783203125	0		1.7492144775390626	-0.456542724609375	0		3.35422509765625	-0.056700519561767575	0		4.6836953125	-0.04024123764038086	0		5.98941162109375	0.5216992797851563	0		-0.13621501159667967	5.96235009765625	0		
-8.63756000995636E-4	6.027479767799378E-4	0		0.4961682739257812	-2.418178466796875	0		-0.8589718017578125	0.296204833984375	0		-0.46413946533203126	-2.66392041015625	0		1.7427410888671875	-0.4500458984375	0		3.3306904296875	-0.05393164825439453	0		4.6789716796875	-0.04880722045898438	0		5.988845703125	0.52205029296875	0		-0.18698744201660156	5.94761669921875	0		
